# xmcd
#
# Track frame offsets:
#	150
#	16634
#	32885
#	42316
#	56320
#	69329
#	82740
#	93236
#	103881
#	120848
#
# Disc length: 1735 seconds
#
# Revision: 1
# Processed by: cddbd v1.4PL0 Copyright (c) Steve Scherf et al.
# Submitted via: audiograbber 1.82.02
#
DISCID=6906c50a
DTITLE=Johnny Cash - The Man In Black 1971 (Vinyl)
DYEAR=1971
DGENRE=Country
TTITLE0=The Preacher Said, "Jesus Said" (with Billy Graham)
TTITLE1=Orphan Of The Road
TTITLE2=You've Got A New Light Shining In Your Eyes
TTITLE3=If Not For Love
TTITLE4=Man In Black
TTITLE5=Singin' In Viet Nam Talkin' Blues
TTITLE6=Ned Kelly
TTITLE7=Look For Me (with June Carter Cash)
TTITLE8=Dear Mrs.
TTITLE9=I Talk To Jesus Every Day (with June Carter Cash)
EXTD=
EXTT0=
EXTT1=
EXTT2=
EXTT3=
EXTT4=
EXTT5=
EXTT6=
EXTT7=
EXTT8=
EXTT9=
PLAYORDER=
